<svg width="631" height="650" viewBox="0 0 631 650" fill="none" xmlns="http://www.w3.org/2000/svg">
<path fill-rule="evenodd" clip-rule="evenodd" d="M285.188 2.84148C348.39 -6.98586 415.449 8.94261 467.211 46.5175C518.983 84.1005 539.445 147.502 565.161 206.082C594.08 271.956 645.776 338.607 625.776 407.714C605.701 477.082 525.548 505.03 466.58 546.716C408.547 587.741 355.676 657.554 285.188 648.485C214.52 639.393 187.185 552.335 134.807 504.031C90.8734 463.515 19.3869 446.195 3.39218 388.611C-12.5345 331.272 31.4042 276.677 56.6938 222.808C78.568 176.214 103.035 133.076 140.117 97.3774C182.742 56.3435 226.724 11.932 285.188 2.84148Z" fill="url(#paint0_linear)"/>
<defs>
<linearGradient id="paint0_linear" x1="0" y1="324.644" x2="630.261" y2="324.644" gradientUnits="userSpaceOnUse">
<stop stop-color="#D5D4D0"/>
<stop offset="0.01" stop-color="#D5D4D0"/>
<stop offset="0.31" stop-color="#EEEEEC"/>
</linearGradient>
</defs>
</svg>
