<svg width="576" height="519" viewBox="0 0 576 519" fill="none" xmlns="http://www.w3.org/2000/svg">
<path fill-rule="evenodd" clip-rule="evenodd" d="M276.506 3.23856C334.826 -0.735728 400.463 -7.64747 445.544 29.566C490.1 66.3468 480.77 135.201 501.632 189.079C524.314 247.66 587.589 297.455 572.923 358.538C558.271 419.565 487.772 447.195 432.516 476.956C383.971 503.102 331.635 517.182 276.506 518.189C220.449 519.213 164.27 511.753 116.3 482.73C65.3148 451.884 11.5083 410.363 1.25622 351.661C-8.77153 294.243 43.8629 247.762 65.836 193.776C85.6047 145.205 84.5245 86.6932 123.417 51.5176C164.096 14.7257 221.783 6.96767 276.506 3.23856Z" fill="url(#paint0_linear)"/>
<defs>
<linearGradient id="paint0_linear" x1="0" y1="259.139" x2="575.104" y2="259.139" gradientUnits="userSpaceOnUse">
<stop stop-color="#D5D4D0"/>
<stop offset="0.01" stop-color="#D5D4D0"/>
<stop offset="0.31" stop-color="#EEEEEC"/>
</linearGradient>
</defs>
</svg>
