<svg width="2013" height="1303" viewBox="0 0 2013 1303" fill="none" xmlns="http://www.w3.org/2000/svg">
<g filter="url(#filter0_d)">
<path fill-rule="evenodd" clip-rule="evenodd" d="M284 28L344 64C404 100 524 172 644 223C764 273 884 302 1004 295C1124 288 1244 244 1364 230C1484 216 1604 230 1664 237L1724 244V374H1664C1604 374 1484 374 1364 374C1244 374 1124 374 1004 374C884 374 764 374 644 374C524 374 404 374 344 374H284V28Z" fill="url(#paint0_linear)"/>
<path fill-rule="evenodd" clip-rule="evenodd" d="M284 28L344 64C404 100 524 172 644 223C764 273 884 302 1004 295C1124 288 1244 244 1364 230C1484 216 1604 230 1664 237L1724 244V374H1664C1604 374 1484 374 1364 374C1244 374 1124 374 1004 374C884 374 764 374 644 374C524 374 404 374 344 374H284V28Z" stroke="black"/>
</g>
<rect x="284" y="303" width="1444" height="1000" fill="url(#paint1_linear)"/>
<path fill-rule="evenodd" clip-rule="evenodd" d="M1667.19 158.841C1730.39 149.014 1797.45 164.943 1849.21 202.518C1900.98 240.101 1921.44 303.502 1947.16 362.082C1976.08 427.956 2027.78 494.607 2007.78 563.714C1987.7 633.082 1907.55 661.03 1848.58 702.716C1790.55 743.741 1737.68 813.554 1667.19 804.485C1596.52 795.393 1569.19 708.335 1516.81 660.031C1472.87 619.515 1401.39 602.195 1385.39 544.611C1369.47 487.272 1413.4 432.677 1438.69 378.808C1460.57 332.214 1485.03 289.076 1522.12 253.377C1564.74 212.344 1608.72 167.932 1667.19 158.841Z" fill="url(#paint2_linear)"/>
<path fill-rule="evenodd" clip-rule="evenodd" d="M276.506 691.239C334.826 687.264 400.463 680.353 445.544 717.566C490.1 754.347 480.77 823.201 501.632 877.079C524.314 935.66 587.589 985.455 572.923 1046.54C558.271 1107.57 487.772 1135.19 432.516 1164.96C383.971 1191.1 331.635 1205.18 276.506 1206.19C220.449 1207.21 164.27 1199.75 116.3 1170.73C65.3148 1139.88 11.5083 1098.36 1.25622 1039.66C-8.77153 982.243 43.8629 935.762 65.836 881.776C85.6047 833.205 84.5245 774.693 123.417 739.518C164.096 702.726 221.783 694.968 276.506 691.239Z" fill="url(#paint3_linear)"/>
<defs>
<filter id="filter0_d" x="257" y="0" width="1500" height="406" filterUnits="userSpaceOnUse" color-interpolation-filters="sRGB">
<feFlood flood-opacity="0" result="BackgroundImageFix"/>
<feColorMatrix in="SourceAlpha" type="matrix" values="0 0 0 0 0 0 0 0 0 0 0 0 0 0 0 0 0 0 127 0"/>
<feOffset dx="3" dy="2"/>
<feGaussianBlur stdDeviation="15"/>
<feColorMatrix type="matrix" values="0 0 0 0 0 0 0 0 0 0 0 0 0 0 0 0 0 0 0.2 0"/>
<feBlend mode="normal" in2="BackgroundImageFix" result="effect1_dropShadow"/>
<feBlend mode="normal" in="SourceGraphic" in2="effect1_dropShadow" result="shape"/>
</filter>
<linearGradient id="paint0_linear" x1="284" y1="201" x2="1724" y2="201" gradientUnits="userSpaceOnUse">
<stop stop-color="#434343"/>
<stop offset="1"/>
</linearGradient>
<linearGradient id="paint1_linear" x1="284" y1="803" x2="1728" y2="803" gradientUnits="userSpaceOnUse">
<stop stop-color="#434343"/>
<stop offset="1"/>
</linearGradient>
<linearGradient id="paint2_linear" x1="1382" y1="480.644" x2="2012.26" y2="480.644" gradientUnits="userSpaceOnUse">
<stop stop-color="#D5D4D0"/>
<stop offset="0.01" stop-color="#D5D4D0"/>
<stop offset="0.31" stop-color="#EEEEEC"/>
</linearGradient>
<linearGradient id="paint3_linear" x1="0" y1="947.139" x2="575.104" y2="947.139" gradientUnits="userSpaceOnUse">
<stop stop-color="#D5D4D0"/>
<stop offset="0.01" stop-color="#D5D4D0"/>
<stop offset="0.31" stop-color="#EEEEEC"/>
</linearGradient>
</defs>
</svg>
