<svg width="22" height="24" viewBox="0 0 22 24" fill="none" xmlns="http://www.w3.org/2000/svg">
<g clip-path="url(#clip0)">
<path d="M11.0047 6.60942C7.88147 6.60942 5.36228 9.01411 5.36228 11.9954C5.36228 14.9766 7.88147 17.3813 11.0047 17.3813C14.1279 17.3813 16.6471 14.9766 16.6471 11.9954C16.6471 9.01411 14.1279 6.60942 11.0047 6.60942ZM11.0047 15.4969C8.98638 15.4969 7.33638 13.9266 7.33638 11.9954C7.33638 10.0641 8.98147 8.4938 11.0047 8.4938C13.0279 8.4938 14.673 10.0641 14.673 11.9954C14.673 13.9266 13.023 15.4969 11.0047 15.4969V15.4969ZM18.194 6.38911C18.194 7.08755 17.6047 7.64536 16.8779 7.64536C16.1462 7.64536 15.5618 7.08286 15.5618 6.38911C15.5618 5.69536 16.1511 5.13286 16.8779 5.13286C17.6047 5.13286 18.194 5.69536 18.194 6.38911ZM21.931 7.66411C21.8475 5.9813 21.4449 4.49067 20.1533 3.26255C18.8667 2.03442 17.3051 1.65005 15.5422 1.56567C13.7252 1.46723 8.27924 1.46723 6.46228 1.56567C4.70424 1.64536 3.14263 2.02973 1.85112 3.25786C0.559598 4.48598 0.16183 5.97661 0.0734375 7.65942C-0.0296875 9.3938 -0.0296875 14.5922 0.0734375 16.3266C0.15692 18.0094 0.559598 19.5 1.85112 20.7282C3.14263 21.9563 4.69933 22.3407 6.46228 22.425C8.27924 22.5235 13.7252 22.5235 15.5422 22.425C17.3051 22.3454 18.8667 21.961 20.1533 20.7282C21.44 19.5 21.8426 18.0094 21.931 16.3266C22.0342 14.5922 22.0342 9.39848 21.931 7.66411V7.66411ZM19.5837 18.1875C19.2007 19.1063 18.4592 19.8141 17.4917 20.1844C16.0431 20.7329 12.6056 20.6063 11.0047 20.6063C9.40379 20.6063 5.96138 20.7282 4.51763 20.1844C3.55513 19.8188 2.81362 19.111 2.42567 18.1875C1.85112 16.8047 1.98371 13.5235 1.98371 11.9954C1.98371 10.4672 1.85603 7.1813 2.42567 5.80317C2.80871 4.88442 3.55022 4.17661 4.51763 3.8063C5.96629 3.25786 9.40379 3.38442 11.0047 3.38442C12.6056 3.38442 16.048 3.26255 17.4917 3.8063C18.4542 4.17192 19.1958 4.87973 19.5837 5.80317C20.1583 7.18598 20.0257 10.4672 20.0257 11.9954C20.0257 13.5235 20.1583 16.8094 19.5837 18.1875Z" fill="#EEEEEC"/>
</g>
<defs>
<clipPath id="clip0">
<rect width="22" height="24" fill="white"/>
</clipPath>
</defs>
</svg>
