<svg width="22" height="24" viewBox="0 0 22 24" fill="none" xmlns="http://www.w3.org/2000/svg">
<path d="M20.4286 1.5H1.56652C0.702232 1.5 0 2.17969 0 3.01406V20.9859C0 21.8203 0.702232 22.5 1.56652 22.5H20.4286C21.2929 22.5 22 21.8203 22 20.9859V3.01406C22 2.17969 21.2929 1.5 20.4286 1.5ZM6.64911 19.5H3.38839V9.47812H6.65402V19.5H6.64911ZM5.01875 8.10938C3.97277 8.10938 3.12812 7.29844 3.12812 6.30469C3.12812 5.31094 3.97277 4.5 5.01875 4.5C6.05982 4.5 6.90937 5.31094 6.90937 6.30469C6.90937 7.30312 6.06473 8.10938 5.01875 8.10938V8.10938ZM18.8719 19.5H15.6112V14.625C15.6112 13.4625 15.5866 11.9672 13.917 11.9672C12.2179 11.9672 11.9576 13.2328 11.9576 14.5406V19.5H8.69688V9.47812H11.825V10.8469H11.8692C12.3062 10.0594 13.3719 9.22969 14.958 9.22969C18.258 9.22969 18.8719 11.3062 18.8719 14.0062V19.5V19.5Z" fill="#EEEEEC"/>
</svg>
