<svg width="22" height="24" viewBox="0 0 22 24" fill="none" xmlns="http://www.w3.org/2000/svg">
<path d="M18.7049 4.55156C16.6473 2.58281 13.9071 1.5 10.9951 1.5C4.98437 1.5 0.0933036 6.16875 0.0933036 11.9062C0.0933036 13.7391 0.594196 15.5297 1.54687 17.1094L0 22.5L5.77991 21.0516C7.37098 21.8813 9.16339 22.3172 10.9902 22.3172H10.9951C17.0009 22.3172 22 17.6484 22 11.9109C22 9.13125 20.7625 6.52031 18.7049 4.55156V4.55156ZM10.9951 20.5641C9.36473 20.5641 7.76875 20.1469 6.37902 19.3594L6.05 19.1719L2.62232 20.0297L3.53571 16.8375L3.31964 16.5094C2.41116 15.1313 1.93482 13.5422 1.93482 11.9062C1.93482 7.13906 6.00089 3.25781 11 3.25781C13.421 3.25781 15.6946 4.15781 17.4036 5.79375C19.1125 7.42969 20.1634 9.6 20.1585 11.9109C20.1585 16.6828 15.9893 20.5641 10.9951 20.5641V20.5641ZM15.9647 14.0859C15.6946 13.9547 14.354 13.3266 14.1036 13.2422C13.8531 13.1531 13.6714 13.1109 13.4897 13.3734C13.308 13.6359 12.7875 14.2172 12.6254 14.3953C12.4683 14.5688 12.3063 14.5922 12.0362 14.4609C10.4353 13.6969 9.38438 13.0969 8.32857 11.3672C8.04866 10.9078 8.60848 10.9406 9.12902 9.94687C9.21741 9.77344 9.17321 9.62344 9.10446 9.49219C9.03571 9.36094 8.49062 8.08125 8.26473 7.56094C8.04375 7.05469 7.81786 7.125 7.65089 7.11563C7.49375 7.10625 7.31205 7.10625 7.13036 7.10625C6.94866 7.10625 6.65402 7.17188 6.40357 7.42969C6.15312 7.69219 5.45089 8.32031 5.45089 9.6C5.45089 10.8797 6.42813 12.1172 6.56071 12.2906C6.69821 12.4641 8.4808 15.0891 11.2161 16.2188C12.9446 16.9312 13.6223 16.9922 14.4866 16.8703C15.0121 16.7953 16.0973 16.2422 16.3232 15.6328C16.5491 15.0234 16.5491 14.5031 16.4804 14.3953C16.4165 14.2781 16.2348 14.2125 15.9647 14.0859Z" fill="#EEEEEC"/>
</svg>
