<svg width="42" height="46" viewBox="0 0 42 46" fill="none" xmlns="http://www.w3.org/2000/svg">
<path d="M16.7363 23.5076C17.1465 24.0691 17.8113 24.0691 18.2214 23.5076L18.9637 22.4915C19.3738 21.93 19.3738 21.0198 18.9637 20.4583L16.6195 17.25L18.963 14.0408C19.3732 13.4793 19.3732 12.5691 18.963 12.0076L18.2208 10.9915C17.8106 10.43 17.1458 10.43 16.7357 10.9915L12.9071 16.233C12.497 16.7945 12.497 17.7046 12.9071 18.2661L16.7363 23.5076ZM23.037 22.4924L23.7792 23.5085C24.1894 24.07 24.8542 24.07 25.2643 23.5085L29.0929 18.267C29.503 17.7055 29.503 16.7954 29.0929 16.2339L25.2643 10.9924C24.8542 10.4309 24.1894 10.4309 23.7792 10.9924L23.037 12.0085C22.6268 12.57 22.6268 13.4802 23.037 14.0417L25.3805 17.25L23.037 20.4592C22.6268 21.0207 22.6268 21.9309 23.037 22.4924ZM40.95 37.375H25.0386C24.99 39.1548 24.0732 40.25 22.89 40.25H18.9C17.6735 40.25 16.7331 38.6804 16.7495 37.375H1.05C0.4725 37.375 0 38.0219 0 38.8125V40.25C0 43.4125 1.89 46 4.2 46H37.8C40.11 46 42 43.4125 42 40.25V38.8125C42 38.0219 41.5275 37.375 40.95 37.375ZM37.8 4.3125C37.8 1.94063 36.3825 0 34.65 0H7.35C5.6175 0 4.2 1.94063 4.2 4.3125V34.5H37.8V4.3125ZM33.6 28.75H8.4V5.75H33.6V28.75Z" fill="#EEEEEC"/>
</svg>
