<?xml version="1.0" standalone="no"?>
<!DOCTYPE svg PUBLIC "-//W3C//DTD SVG 20010904//EN"
 "http://www.w3.org/TR/2001/REC-SVG-20010904/DTD/svg10.dtd">
<svg version="1.0" xmlns="http://www.w3.org/2000/svg"
 width="712.000000pt" height="712.000000pt" viewBox="0 0 712.000000 712.000000"
 preserveAspectRatio="xMidYMid meet">
<metadata>
Created by potrace 1.14, written by Peter Selinger 2001-2017
</metadata>
<g transform="translate(0.000000,712.000000) scale(0.100000,-0.100000)"
fill="#000000" stroke="none">
<path d="M1603 6602 l-1003 -517 3 -2043 2 -2042 1921 -1000 1920 -1000 1037
537 1037 537 -2 1034 -3 1033 -935 484 -935 484 -3 988 -2 988 -1014 518
c-558 284 -1016 517 -1018 516 -2 0 -454 -233 -1005 -517z m882 -394 c25
-2150 32 -3064 21 -3074 -6 -7 -267 -141 -581 -299 -314 -158 -674 -341 -802
-406 -128 -66 -235 -119 -238 -119 -3 0 -4 829 -3 1841 l3 1842 785 403 c432
221 790 403 796 403 9 1 14 -161 19 -591z m1630 -4029 c809 -413 1607 -820
1773 -906 167 -85 300 -159 295 -163 -4 -5 -380 -198 -834 -429 l-827 -421
-758 400 c-418 219 -1202 632 -1743 917 -541 285 -983 522 -983 527 1 9 1579
825 1597 826 6 0 672 -338 1480 -751z"/>
</g>
</svg>
